<?xml version="1.0" encoding="iso-8859-1"?>
<!-- Generator: Adobe Illustrator 19.0.0, SVG Export Plug-In . SVG Version: 6.00 Build 0)  -->
<svg version="1.1" id="Capa_1" xmlns="http://www.w3.org/2000/svg" xmlns:xlink="http://www.w3.org/1999/xlink" x="0px" y="0px"
	 viewBox="0 0 511.998 511.998" style="enable-background:new 0 0 511.998 511.998;" xml:space="preserve">
<path style="fill:#FC3952;" d="M217.543,511.998c-37.641,0-68.267-31.113-68.267-69.342v-7.458c0-4.71,3.823-8.533,8.533-8.533
	c4.71,0,8.533,3.823,8.533,8.533v7.458c0,28.826,22.972,52.275,51.2,52.275s51.2-22.963,51.2-51.2v-60.186
	c-2.517,0.213-5.018,0.341-7.501,0.375c-31.377,0.563-59.844-14.02-76.237-38.613c-16.137-24.201-21.615-52.028-15.445-78.345
	c4.574-19.482,15.164-38.409,30.618-54.741c16.794-17.732,37.444-30.669,57.412-43.179c3.686-2.313,7.424-4.651,11.153-7.031V79.077
	c0-14.874,0-31.727,6.298-47.292c7.578-18.731,23.535-31.198,40.644-31.761c13.952-0.512,28.075,7.194,36.753,19.977
	c6.929,10.214,10.487,23.458,10.274,38.289c-0.299,20.77-7.535,41.984-20.941,61.363c-10.906,15.77-25.719,30.259-45.312,44.305
	c-3.499,2.509-7.066,4.949-10.667,7.33v47.821c24.064,0.068,47.787,10.726,61.705,30.251c13.474,18.901,17.954,41.719,12.612,64.239
	c-5.589,23.561-21.299,43.682-43.11,55.202c-10.206,5.393-20.736,9.404-31.206,11.938v62.993
	C285.81,481.372,255.184,511.998,217.543,511.998z M268.743,182.211c-0.7,0.435-1.399,0.879-2.091,1.314
	c-19.942,12.493-38.784,24.294-54.076,40.448c-13.389,14.14-22.511,30.353-26.394,46.908c-5.086,21.675-0.461,44.749,13.022,64.973
	c13.167,19.755,36.318,31.317,61.815,31.01c2.551-0.034,5.129-0.179,7.731-0.452V238.488c-5.342,1.459-10.479,3.652-15.232,6.613
	c-9.335,5.82-15.957,15.514-18.167,26.598c-2.159,10.837,0.102,21.973,6.221,30.549c2.731,3.84,1.843,9.165-1.997,11.904
	c-3.84,2.739-9.165,1.843-11.904-1.997c-8.841-12.399-12.134-28.365-9.054-43.802c3.132-15.684,12.561-29.44,25.873-37.734
	c7.552-4.71,15.787-7.927,24.269-9.737v-38.673H268.743z M285.81,236.269V363.1c7.774-2.202,15.59-5.35,23.236-9.395
	c17.459-9.225,30.02-25.276,34.475-44.049c4.181-17.664,0.666-35.558-9.907-50.389C323.092,244.504,304.541,236.38,285.81,236.269z
	 M316.871,17.065c-0.205,0-0.418,0-0.623,0.009c-11.793,0.384-21.248,10.871-25.387,21.103c-5.052,12.493-5.052,26.931-5.052,40.9
	v71.526c0.239-0.171,0.478-0.341,0.717-0.512c17.963-12.885,31.454-26.018,41.216-40.149c11.469-16.58,17.664-34.526,17.911-51.9
	c0.111-7.893-1.067-19.243-7.33-28.467C333.127,21.929,324.765,17.065,316.871,17.065z"/>
<g>
</g>
<g>
</g>
<g>
</g>
<g>
</g>
<g>
</g>
<g>
</g>
<g>
</g>
<g>
</g>
<g>
</g>
<g>
</g>
<g>
</g>
<g>
</g>
<g>
</g>
<g>
</g>
<g>
</g>
</svg>
