<?xml version="1.0" encoding="iso-8859-1"?>
<!-- Generator: Adobe Illustrator 19.0.0, SVG Export Plug-In . SVG Version: 6.00 Build 0)  -->
<svg version="1.1" id="Capa_1" xmlns="http://www.w3.org/2000/svg" xmlns:xlink="http://www.w3.org/1999/xlink" x="0px" y="0px"
	 viewBox="0 0 512.016 512.016" style="enable-background:new 0 0 512.016 512.016;" xml:space="preserve">
<g>
	<g>
		<path d="M285.806,219.109v-47.821c3.593-2.381,7.168-4.821,10.667-7.33c19.584-14.046,34.406-28.535,45.312-44.305
			c13.406-19.379,20.642-40.593,20.941-61.363c0.213-14.831-3.345-28.075-10.274-38.289C343.773,7.218,329.65-0.488,315.698,0.024
			c-17.118,0.563-33.075,13.03-40.653,31.761c-6.298,15.565-6.298,32.418-6.298,47.292v82.953
			c-3.729,2.381-7.467,4.719-11.153,7.031c-19.968,12.51-40.627,25.446-57.412,43.179c-15.454,16.333-26.044,35.26-30.618,54.741
			c-6.17,26.317-0.691,54.144,15.445,78.345c16.393,24.593,44.86,39.177,76.237,38.613c2.483-0.034,4.983-0.162,7.501-0.375v60.186
			c0,28.237-22.963,51.2-51.2,51.2c-28.228,0-51.2-23.45-51.2-52.275v-7.458c0-4.71-3.823-8.533-8.533-8.533
			s-8.533,3.823-8.533,8.533v7.458c0,38.229,30.626,69.342,68.267,69.342c37.641,0,68.267-30.626,68.258-68.267v-63.01
			c10.479-2.534,21.009-6.545,31.215-11.938c21.811-11.52,37.521-31.642,43.11-55.202c5.333-22.519,0.853-45.338-12.621-64.239
			C333.601,229.835,309.87,219.177,285.806,219.109z M285.814,79.085c0-13.961,0-28.399,5.052-40.892
			c4.139-10.232,13.594-20.719,25.387-21.103c0.205-0.009,0.418-0.009,0.623-0.009c7.893,0,16.256,4.855,21.461,12.501
			c6.263,9.225,7.441,20.574,7.33,28.467c-0.247,17.374-6.443,35.319-17.911,51.9c-9.771,14.131-23.262,27.264-41.225,40.149
			c-0.239,0.171-0.478,0.341-0.717,0.512V79.085z M227.677,312.173c2.739,3.84,8.064,4.736,11.904,1.997
			c3.84-2.739,4.727-8.064,1.997-11.904c-6.118-8.576-8.38-19.712-6.221-30.549c2.21-11.085,8.832-20.779,18.167-26.598
			c4.753-2.961,9.899-5.154,15.232-6.613v127.923c-2.603,0.273-5.18,0.418-7.731,0.452c-25.498,0.307-48.649-11.255-61.816-31.01
			c-13.483-20.224-18.108-43.298-13.022-64.973c3.883-16.555,13.005-32.768,26.394-46.908
			c15.292-16.154,34.133-27.955,54.076-40.448c0.691-0.435,1.391-0.879,2.091-1.314l0.009,38.673
			c-8.474,1.809-16.708,5.026-24.26,9.737c-13.312,8.294-22.741,22.05-25.873,37.734
			C215.542,283.809,218.836,299.774,227.677,312.173z M343.534,309.673c-4.454,18.773-17.015,34.825-34.475,44.049
			c-7.654,4.045-15.462,7.194-23.245,9.395V236.286c18.731,0.102,37.282,8.235,47.812,22.997
			C344.208,274.115,347.724,292.009,343.534,309.673z"/>
	</g>
</g>
<g>
</g>
<g>
</g>
<g>
</g>
<g>
</g>
<g>
</g>
<g>
</g>
<g>
</g>
<g>
</g>
<g>
</g>
<g>
</g>
<g>
</g>
<g>
</g>
<g>
</g>
<g>
</g>
<g>
</g>
</svg>
