<?xml version="1.0" encoding="iso-8859-1"?>
<!-- Generator: Adobe Illustrator 19.0.0, SVG Export Plug-In . SVG Version: 6.00 Build 0)  -->
<svg version="1.1" id="Capa_1" xmlns="http://www.w3.org/2000/svg" xmlns:xlink="http://www.w3.org/1999/xlink" x="0px" y="0px"
	 viewBox="0 0 511.963 511.963" style="enable-background:new 0 0 511.963 511.963;" xml:space="preserve">
<path style="fill:#FFC107;" d="M383.982,303.963c0-61.024-35.008-96-96-96c-16.096,0-31.2,3.488-44.672,9.248
	c-2.72-12.736-5.344-24.96-7.808-36.448c2.272-2.304,4.48-4.544,6.656-6.72C326.67,89.499,269.55,7.483,268.942,6.651
	c-4.352-6.08-12.384-8.32-19.328-5.344c-26.4,11.36-72.768,51.552-58.72,122.112c2.4,12.032,5.76,28.32,9.792,47.392
	c-36.992,39.456-72.704,86.944-72.704,133.152c0,51.52,54.4,93.696,122.4,95.904c3.296,14.88,6.368,28.832,9.152,41.472
	c1.632,7.456-0.128,14.816-3.648,21.408c-0.704-25.888-21.856-46.784-47.904-46.784c-26.464,0-48,21.536-48,48s21.536,48,48,48
	h20.224c19.584,0,37.824-8.704,50.016-23.936c12.128-15.104,16.704-34.624,12.512-53.568c-2.464-11.264-5.184-23.552-8.064-36.608
	C340.494,388.635,383.982,350.011,383.982,303.963z M249.806,38.427c8.16,20,16.192,60.256-22.272,104.448
	c-2.048-9.856-3.84-18.528-5.248-25.696C213.71,74.107,235.086,49.723,249.806,38.427z M159.982,303.963
	c0-29.984,23.04-64.416,48.928-94.464c1.76,8.224,3.616,16.704,5.472,25.376c-13.728,11.36-23.84,25.024-29.056,38.336
	c-8.672,22.24-4.384,43.552,11.808,58.496c6.464,6.016,16.608,5.664,22.592-0.896c6.016-6.496,5.6-16.608-0.896-22.592
	c-2.336-2.144-9.408-8.672-3.68-23.36c1.664-4.224,4.128-8.512,7.328-12.672c6.88,31.712,14.048,64.544,20.768,95.2
	C196.974,363.067,159.982,335.771,159.982,303.963z M275.822,366.523c-8.224-37.472-17.184-78.528-25.536-117.12
	c11.2-5.76,24.128-9.44,37.696-9.44c43.072,0,64,20.928,64,64C351.982,334.139,318.734,360.251,275.822,366.523z"/>
<g>
</g>
<g>
</g>
<g>
</g>
<g>
</g>
<g>
</g>
<g>
</g>
<g>
</g>
<g>
</g>
<g>
</g>
<g>
</g>
<g>
</g>
<g>
</g>
<g>
</g>
<g>
</g>
<g>
</g>
</svg>
