<svg height="404pt" viewBox="0 0 404 404.93" width="404pt" xmlns="http://www.w3.org/2000/svg"><path d="m237.738281 158.375c0 19.226562-15.582031 34.8125-34.808593 34.8125-19.226563 0-34.8125-15.585938-34.8125-34.8125s15.585937-34.8125 34.8125-34.8125c19.226562 0 34.808593 15.585938 34.808593 34.8125zm0 0"/><path d="m202.90625 75.410156c-70.058594 0-127.074219 57-127.074219 127.054688.015625 34.59375 14.136719 67.6875 39.097657 91.640625v-37.101563c.066406-25.699218 20.898437-46.507812 46.597656-46.539062 2.546875 0 4.941406 1.214844 6.449218 3.265625 8.171876 11.125 21.148438 17.699219 34.953126 17.699219 13.804687 0 26.785156-6.574219 34.957031-17.699219 1.503906-2.050781 3.898437-3.261719 6.441406-3.265625 25.699219.03125 46.535156 20.839844 46.601563 46.539062v37.101563c24.957031-23.953125 39.074218-57.046875 39.085937-91.640625 0-70.058594-57.050781-127.054688-127.109375-127.054688zm.023438 133.777344c-28.0625 0-50.8125-22.75-50.8125-50.8125s22.75-50.8125 50.8125-50.8125 50.8125 22.75 50.8125 50.8125c-.03125 28.050781-22.761719 50.78125-50.8125 50.8125zm0 0"/><path d="m248.046875 226.695312c-13.394531 15.539063-33.828125 23.109376-54.109375 20.050782-14.070312-2.105469-26.902344-9.226563-36.136719-20.050782-15.316406 1.886719-26.832031 14.878907-26.871093 30.308594v50.144532c21 14.101562 45.324218 22.371093 72 22.371093 26.675781 0 51-8.269531 72-22.371093v-50.144532c-.042969-15.433594-11.566407-28.421875-26.882813-30.308594zm0 0"/><path d="m380.71875 227.152344c2.480469-19.03125 1.980469-38.328125-1.476562-57.207032-.484376-2.644531.390624-5.351562 2.332031-7.210937l21.175781-20.3125-20.699219-47.316406-29.335937 2.160156c-2.738282.199219-5.386719-1.015625-7.019532-3.222656-11.359374-15.375-25.308593-28.660157-41.21875-39.257813-2.296874-1.527344-3.640624-4.132812-3.5625-6.890625l.863282-29.328125-48.105469-18.566406-18.957031 21.972656c-1.757813 2.035156-4.421875 3.054688-7.089844 2.707032-19.03125-2.480469-38.335938-1.980469-57.214844 1.476562-2.644531.484375-5.351562-.390625-7.210937-2.332031l-20.3125-21.175781-47.316407 20.699218 2.15625 29.335938c.203126 2.738281-1.015624 5.386718-3.222656 7.019531-15.375 11.359375-28.660156 25.308594-39.257812 41.21875-1.527344 2.292969-4.132813 3.640625-6.890625 3.5625l-29.328125-.863281-18.5625 48.109375 21.972656 18.957031c2.035156 1.757812 3.054688 4.421875 2.707031 7.089844-2.476562 19.03125-1.980469 38.328125 1.476563 57.207031.484375 2.644531-.390625 5.351563-2.332032 7.210937l-21.175781 20.3125 20.699219 47.316407 29.335938-2.15625c2.738281-.199219 5.386718 1.015625 7.019531 3.222656 11.359375 15.375 25.308593 28.65625 41.222656 39.253906 2.292969 1.53125 3.636719 4.136719 3.554687 6.890625l-.859374 29.324219 48.109374 18.570313 18.953126-21.972657c1.757812-2.035156 4.421874-3.054687 7.089843-2.707031 19.03125 2.476562 38.328125 1.976562 57.207031-1.476562 2.644532-.484376 5.351563.390624 7.210938 2.332031l20.3125 21.175781 47.316406-20.699219-2.15625-29.339843c-.199218-2.734376 1.015625-5.386719 3.222656-7.015626 15.375-11.363281 28.660157-25.308593 39.257813-41.21875 1.523437-2.300781 4.132813-3.648437 6.890625-3.5625l29.324219.863282 18.566406-48.109375-21.960937-18.960938c-2.039063-1.753906-3.054688-4.417969-2.710938-7.085937zm-177.789062 118.367187c-78.882813 0-143.054688-64.171875-143.054688-143.054687 0-78.878906 64.171875-143.054688 143.054688-143.054688 78.878906 0 143.054687 64.175782 143.054687 143.054688 0 78.882812-64.175781 143.054687-143.054687 143.054687zm0 0"/></svg>